# xmcd CD database file
#
# Track frame offsets:
#	150
#	11912
#	35550
#	55077
#	77502
#	94822
#	116160
#	129912
#	147565
#	163735
#	179292
#	193677
#	207917
#	225232
#	242732
#	254530
#	263940
#	270105
#	282457
#	296330
#	308132
#	322170
#
# Disc length: 4467 seconds
#
# Revision: 0
# Processed by: cddbd v1.5PL3 Copyright (c) Steve Scherf et al.
# Submitted via: cdripper 1.0.7
#
DISCID=42117116
DTITLE=K.C. Douglas - Mercury Blues
DYEAR=1998
DGENRE=Blues
TTITLE0=Mercury Blues
TTITLE1=My Mind's Going Back to 1929
TTITLE2=Catfish Blues
TTITLE3=High Water Rising
TTITLE4=Woke up This Morning
TTITLE5=Somebody Done Stole My Gal [#]
TTITLE6=Fanny Lou [#]
TTITLE7=I Don't Want No Woman to Love Me [#]
TTITLE8=Married Woman Blues [#]
TTITLE9=Black Cat Bone [#]
TTITLE10=Good Looking Women [#]
TTITLE11=Richard's Ride [#]
TTITLE12=Hear Me Howling [#]
TTITLE13=I'm Gonna Build Me a Web [#]
TTITLE14=Make Your Coffee [#]
TTITLE15=Night Shirt Blues [#]
TTITLE16=Canned Heat [#]
TTITLE17=Your Crying Won't Make Me Stay
TTITLE18=Country Girl
TTITLE19=Black Cat Bone
TTITLE20=Good Looking Women
TTITLE21=Fanny Lou
EXTD=YEAR: 1998
EXTT0=
EXTT1=
EXTT2=
EXTT3=
EXTT4=
EXTT5=
EXTT6=
EXTT7=
EXTT8=
EXTT9=
EXTT10=
EXTT11=
EXTT12=
EXTT13=
EXTT14=
EXTT15=
EXTT16=
EXTT17=
EXTT18=
EXTT19=
EXTT20=
EXTT21=
PLAYORDER=
